# xmcd CD database file
# Copyright (C) 1996 Ti Kan
#
# Track frame offsets:
#  150
#  17745
#  33467
#  45460
#  77670
#  94470
#  107307
#  122095
#  142305
#  169217
#  181760
#
# Disc length: 2568 seconds
#
# Revision: 2
# Processed by: cddbd v1.4b41PL1 Copyright (c) Steve Scherf et al.
# Submitted via: CDWizzard Release:4.12
#
DISCID=8c0a060b
DTITLE=Big Jack Johnson - The Oil Man
DYEAR=1900
DGENRE=
TTITLE0=Oil Man
TTITLE1=Killing Floor
TTITLE2=Tom Dooley
TTITLE3=Catfish Blues
TTITLE4=How Many More Years
TTITLE5=Too Many Drivers
TTITLE6=Driving Wheel
TTITLE7=I'm Gonna Give Up Disco
TTITLE8=Part Time Love
TTITLE9=Steel Guitar Rag
TTITLE10=You Can Have My Woman
EXTD=
EXTT0=
EXTT1=
EXTT2=
EXTT3=
EXTT4=
EXTT5=
EXTT6=
EXTT7=
EXTT8=
EXTT9=
EXTT10=
PLAYORDER=
